/* XPM */
static char *Free_Converter_com_desire32_85261119[] = {
/* columns rows colors chars-per-pixel */
"32 32 93 2 ",
"   c #563190",
".  c #573190",
"X  c #583291",
"o  c #593293",
"O  c #5A3295",
"+  c #5E349A",
"@  c #62359F",
"#  c #6838A7",
"$  c #6E3BAF",
"%  c #753EB8",
"&  c #7C3EC5",
"*  c #7D41C2",
"=  c #7D40C6",
"-  c #8042C9",
";  c #8445CC",
":  c #8547CF",
">  c #8C48D6",
",  c #8C4DD6",
"<  c #8B46D8",
"1  c #8C46D8",
"2  c #8C46D9",
"3  c #8F49DC",
"4  c #9556DF",
"5  c #955DDA",
"6  c #965EDA",
"7  c #965EDB",
"8  c #965EDC",
"9  c #985FDD",
"0  c #985EDE",
"q  c #934CE0",
"w  c #934DE1",
"e  c #974DE4",
"r  c #994EE8",
"t  c #9556E0",
"y  c #9B5BE2",
"u  c #9C5FE4",
"i  c #9A54E8",
"p  c #9F51EF",
"a  c #9E5FE8",
"s  c #9F5FE9",
"d  c #A051F0",
"f  c #A352F4",
"g  c #A35CF1",
"h  c #A753FA",
"j  c #A754F9",
"k  c #A854FB",
"l  c #A855FB",
"z  c #A955FB",
"x  c #A956FB",
"c  c #A957FB",
"v  c #AA57FB",
"b  c #A854FC",
"n  c #A954FC",
"m  c #A855FC",
"M  c #A955FC",
"N  c #A955FD",
"B  c #AA55FD",
"V  c #AA56FE",
"C  c #A95BF8",
"Z  c #AA58FB",
"A  c #AA59FB",
"S  c #AB5BFB",
"D  c #AB5CFA",
"F  c #AC5CFB",
"G  c #AC5DFB",
"H  c #AD5EFB",
"J  c #AD5FFB",
"K  c #A667F0",
"L  c #A767F1",
"P  c #AD6AF7",
"I  c #AC6DF6",
"U  c #AD6DF7",
"Y  c #AE62FB",
"T  c #B065FB",
"R  c #B07AF0",
"E  c #B171FA",
"W  c #B171FB",
"Q  c #B272FB",
"!  c #B372FB",
"~  c #B273FB",
"^  c #B373FB",
"/  c #B272FC",
"(  c #B372FC",
")  c #B373FC",
"_  c #B474FD",
"`  c #B474FE",
"'  c #B574FE",
"]  c #B579FB",
"[  c #B679FB",
"{  c #B57AFB",
"}  c #B67AFB",
"|  c #B77BFB",
" . c None",
/* pixels */
" .F J J J J F J F F F F F F F F Y  . . . . . . . . . . . . . . .",
"F b b Z n b n n n v b b b Z b b b b b v F  . . . . . . . . . . .",
"F b Z b b V b b V v n n b b b v b b V v v n v  . . . . . . . . .",
"F b b b V b b b b b b v V v V v b n n v v V b b D  . . . . . . .",
"F n v V v b b V n b b v n n V b V v b b V v b b b v  . . . . . .",
"F n v b v b v v n v b V b v v b n v b n n v b n b b v  . . . . .",
"F b b b v V n n V v n n b b v b n b V n n b V n b V Z b  . . . .",
"F b n n v b b b b b b v v V v V b b v v b b v v v v b b b  . . .",
"F b b V b b F b V b V v b b V b v V b n v V b n b b n n n  . . .",
"Y b v v b b b b v b v n Z b v b v b b n v b b n V b v v b v  . .",
"D n b b b b b b b b n n b b b b n n v v n n v v v n b V n n  . .",
"D n n v l l v l v h n v b Z Z b b n V b b b V b v n b b b n D  .",
"P g i w 3 < < < < 1 1 1 y  . . . .F b b v v n b v v b b b b b  .",
"] Q Q I K a 4 , : - = &  . . . . . .T b V b n b n V b n b b b  .",
"] ^ ) ) _ _ ) Q I L s t  . . . . . . .F b b v v n b v v b v V  .",
"] ^ ) ) ) ) ) ) ( _ _ (  . . . . . . .Y n n n V b b V b b v V F ",
"] ) ) ) ) ) ) ) ) ) ( (  . . . . . . .Y n v n b b V b b b v n F ",
"] ) ) ) ) ) ) ) ) ) ) (  . . . . . . .F v V n b v v n n V v b  .",
"] ) ) ) ) ) ) ) ) ) _ (  . . . . . .T n b b v v n b b v V b b  .",
" .) ) ) ) ) ) ) ) ) ( ( R  . . . .F b b b n n V n b V v v b v  .",
" .] ( ) ) ) ) ) ) ) ) ) 0 . o e b b b b V v b b V b v v n n v  .",
" . .] Q ) ) ) ) ) ) ) _ 8 . @ d V V b n n v b n v b b V v n  . .",
" . . .| ( ) ) ) ) ( ) _ 8 . $ v v b b v n b V n v n b b b v  . .",
" . . . . .( ) ) ) _ _ _ 8 . * V v b V v b b v v b b b b b  . . .",
" . . . . . .^ ) _ ^ ( _ 8 o > b b b n v b b V b b V b b v  . . .",
" . . . . . . .Q ( ^ _ _ 8 + r b V b n v b v v b v v b v  . . . .",
" . . . . . . . .( _ ( _ 6 # f b v v b V V v V v n n n  . . . . .",
" . . . . . . . . .( _ _ 6 % v n n n b b n v b b n v  . . . . . .",
" . . . . . . . . . .^ _ 6 ; V v b V v v b b b b D  . . . . . . .",
" . . . . . . . . . . ._ 0 q V V b b n n b b Z  . . . . . . . . .",
" . . . . . . . . . . . .u d b b b b b v F  . . . . . . . . . . .",
" . . . . . . . . . . . . .C F F Y  . . . . . . . . . . . . . . ."
};
