/* XPM */
static char *Free_Converter_com_desire64_5391119[] = {
/* columns rows colors chars-per-pixel */
"64 64 123 2 ",
"   c #522C8C",
".  c #532E8D",
"X  c #542F8C",
"o  c #542F8D",
"O  c #552F8D",
"+  c #542E8E",
"@  c #542F8E",
"#  c #552F8E",
"$  c #55308E",
"%  c #56308F",
"&  c #573191",
"*  c #583092",
"=  c #583192",
"-  c #5A3295",
";  c #5D3398",
":  c #5F339B",
">  c #5F349B",
",  c #6235A0",
"<  c #6637A5",
"1  c #6A38AA",
"2  c #6A39AA",
"3  c #6E3BB0",
"4  c #733DB7",
"5  c #783FBC",
"6  c #783EBD",
"7  c #7C3EC6",
"8  c #7D3EC6",
"9  c #7C3FC6",
"0  c #7D3FC6",
"q  c #7D41C3",
"w  c #7D40C6",
"e  c #7E40C6",
"r  c #7E40C7",
"t  c #804DC2",
"y  c #804EC3",
"u  c #814EC3",
"i  c #814DC4",
"p  c #814EC4",
"a  c #8041C9",
"s  c #8142C9",
"d  c #8041CA",
"f  c #8042CA",
"g  c #8344CA",
"h  c #8445CE",
"j  c #8445CF",
"k  c #8446CF",
"l  c #844FC9",
"z  c #8745D1",
"x  c #8746D0",
"c  c #8A4BD5",
"v  c #8B4BD6",
"b  c #8C48D7",
"n  c #8A4CD6",
"m  c #904ADC",
"M  c #914ADD",
"N  c #8B51D3",
"B  c #9253DD",
"V  c #9253DE",
"C  c #9353DE",
"Z  c #9D6FD8",
"A  c #954BE3",
"S  c #954CE2",
"D  c #964AE6",
"F  c #964BE6",
"G  c #964BE7",
"H  c #974BE7",
"J  c #984DE9",
"K  c #994EE8",
"L  c #9C4FEC",
"P  c #9D4FED",
"I  c #9B5BE7",
"U  c #9B5CE7",
"Y  c #9C5CE7",
"T  c #9C50EE",
"R  c #9F50F0",
"E  c #A051F0",
"W  c #A155F3",
"Q  c #A252F4",
"!  c #A453F6",
"~  c #A552F7",
"^  c #A553F7",
"/  c #A753FB",
"(  c #A654F9",
")  c #A853FB",
"_  c #A854FA",
"`  c #A854FB",
"'  c #A855FB",
"]  c #A955FB",
"[  c #A956FB",
"{  c #A957FB",
"}  c #A854FC",
"|  c #A954FC",
" . c #A855FC",
".. c #A955FC",
"X. c #A955FD",
"o. c #AA55FD",
"O. c #AA56FD",
"+. c #AA56FE",
"@. c #AA58FB",
"#. c #AB5AFB",
"$. c #AB5BFB",
"%. c #A464EF",
"&. c #AB68F2",
"*. c #AA6AF5",
"=. c #AB6BF6",
"-. c #AE6EF8",
";. c #B070FA",
":. c #B271FB",
">. c #B272FB",
",. c #B372FB",
"<. c #B273FB",
"1. c #B373FB",
"2. c #B374FB",
"3. c #B375FB",
"4. c #B372FC",
"5. c #B273FC",
"6. c #B373FC",
"7. c #B373FD",
"8. c #B473FD",
"9. c #B374FC",
"0. c #B474FC",
"q. c #B474FD",
"w. c None",
/* pixels */
"w.w.w.w.w.w.w.w.w.w.w.w.w.w.w.w.w.w.w.w.w.w.w.w.w.w.w.w.w.w.w.w.w.w.w.w.w.w.w.w.w.w.w.w.w.w.w.w.w.w.w.w.w.w.w.w.w.w.w.w.w.w.w.w.",
"w.w.` ` ` ` ` ` ` ` ` ` ` ` ` ` ` ` ` ` ` ` ` ` ` ` ` ` ` ` ` ` ` ` ` ` w.w.w.w.w.w.w.w.w.w.w.w.w.w.w.w.w.w.w.w.w.w.w.w.w.w.w.w.",
"w.` ` ..................................................................` ..` ` { w.w.w.w.w.w.w.w.w.w.w.w.w.w.w.w.w.w.w.w.w.w.w.",
"w.` ..........................................................................@.` ` ` w.w.w.w.w.w.w.w.w.w.w.w.w.w.w.w.w.w.w.w.w.",
"w.` ................................................................................` ` ` { w.w.w.w.w.w.w.w.w.w.w.w.w.w.w.w.w.w.",
"w.` ......................................................................................` ` w.w.w.w.w.w.w.w.w.w.w.w.w.w.w.w.w.",
"w.` ..........................................................................................` ` w.w.w.w.w.w.w.w.w.w.w.w.w.w.w.",
"w.` ............................................................................................` ` { w.w.w.w.w.w.w.w.w.w.w.w.w.",
"w.` ..............................................................................................' ' ' w.w.w.w.w.w.w.w.w.w.w.w.",
"w.` ................................................................................................'  .` w.w.w.w.w.w.w.w.w.w.w.",
"w.` .................................................................................................. .` ` w.w.w.w.w.w.w.w.w.w.",
"w.` ....................................................................................................@.` ` w.w.w.w.w.w.w.w.w.",
"w.` ........................................................................................................` ` w.w.w.w.w.w.w.w.",
"w.` ..........................................................................................................` { w.w.w.w.w.w.w.",
"w.` ..........................................................................................................` ` w.w.w.w.w.w.w.",
"w.` ............................................................................................................` ` w.w.w.w.w.w.",
"w.` ............................................................................................................../ ` w.w.w.w.w.",
"w.` ................................................................................................................` w.w.w.w.w.",
"w.` ................................................................................................................' ` w.w.w.w.",
"w.` ................................................................................................................} / w.w.w.w.",
"w.| .................................................................................................................. .` w.w.w.",
"w.| ....................................................................................................................` w.w.w.",
"w...............| ..................| ....| ........` ` ` ` ............................................................` w.w.w.",
"w.) ....+.......o.+.+.+.+.......o.+.o.o.+.o.+.....` ` ` ` ` ` ` ` ` ` ................................................@.` ` w.w.",
"w.W T J G G G G G H H H H H H H H H H H H H H H H &.w.w.w.w.w.w.w.{ ` ` ..................................................' w.w.",
"w.-.*.%.I B c h a 0 0 0 r r r r e e r e r r r w 9 w.w.w.w.w.w.w.w.w.w.$.` ` ..............................................' w.w.",
"w.>.6.q.q.6.>.*.%.U B c h a r 0 0 0 r r r r r w 0 w.w.w.w.w.w.w.w.w.w.w.w.' ` @...........................................` w.w.",
"w.>.6.6.6.6.>.q.q.8.>.>.*.%.Y B v z a r w w r w 0 w.w.w.w.w.w.w.w.w.w.w.w.$. .............................................` ` w.",
"w.>.6.6.6.6.6.6.>.q.>.q.2.q.q.6.;.=.%.Y B n z r 9 w.w.w.w.w.w.w.w.w.w.w.w.w.` ` ............................................' w.",
"w.>.6.6.6.6.6.6.q.>.q.>.6.6.6.6.6.8.q.8.6.>.*.%.I w.w.w.w.w.w.w.w.w.w.w.w.w.w.` ............................................` w.",
"w.>.6.6.6.6.6.6.>.q.>.q.6.6.6.6.6.6.6.6.6.6.6.6.6.w.w.w.w.w.w.w.w.w.w.w.w.w.w.` ............................................` w.",
"w.>.6.6.6.6.6.6.q.>.q.>.6.6.6.6.6.6.6.6.6.6.6.>.>.w.w.w.w.w.w.w.w.w.w.w.w.w.w.` ............................................` w.",
"w.>.>.q.>.q.>.q.>.q.>.q.>.q.>.q.6.6.6.6.6.6.3.>.6.w.w.w.w.w.w.w.w.w.w.w.w.w.w.` ............................................` w.",
"w.>.q.>.q.>.q.>.q.>.q.>.q.>.q.>.6.6.6.6.6.6.6.2.>.w.w.w.w.w.w.w.w.w.w.w.w.w.w.` ............................................` w.",
"w.>.>.q.>.q.>.q.>.q.>.q.>.q.>.q.6.6.6.6.6.6.6.>.>.w.w.w.w.w.w.w.w.w.w.w.w.w.w.` ............................................` w.",
"w.>.q.>.q.>.q.>.q.>.q.>.q.>.q.>.6.6.6.6.6.6.6.>.>.w.w.w.w.w.w.w.w.w.w.w.w.w.` ` ............................................` w.",
"w.>.>.q.>.q.>.q.>.q.>.q.>.q.>.q.6.6.6.6.q.>.q.6.>.w.w.w.w.w.w.w.w.w.w.w.w.$.` ............................................` ` w.",
"w.>.q.>.q.>.q.>.q.>.q.>.q.>.q.>.6.6.6.6.>.q.>.3.>.w.w.w.w.w.w.w.w.w.w.w.w.` ' ............................................` w.w.",
"w.>.>.>.>.q.>.q.>.q.>.q.>.q.>.q.6.6.6.6.q.>.8.>.>.w.w.w.w.w.w.w.w.w.w.{ ' ' ..............................................` w.w.",
"w.w.>.q.q.>.q.>.q.>.q.>.q.>.q.>.6.6.6.6.>.q.>.8.>.Z w.w.w.w.w.w.w.$.' '  .................................................` w.w.",
"w.w.2.>.6.6.6.6.>.q.>.q.>.q.>.q.6.6.6.6.6.6.6.6.8.u   # # # a ..` ` ` ..................................................` ` w.w.",
"w.w.w.>.>.6.6.6.q.>.q.>.q.>.q.>.6.6.6.6.6.6.6.6.8.p # # # * M ..........................................................` w.w.w.",
"w.w.w.w.1.>.>.8.>.q.>.q.>.q.>.q.6.6.6.6.6.6.6.6.8.p # % # > L ..........................................................` w.w.w.",
"w.w.w.w.w.1.>.>.q.>.q.>.q.>.q.>.6.6.6.6.6.6.6.6.8.p # % # 1 ! ` ......................................................` { w.w.w.",
"w.w.w.w.w.w.2.>.>.8.>.q.6.6.6.6.6.6.6.6.6.6.6.6.8.p # % $ 5 O.` ......................................................` w.w.w.w.",
"w.w.w.w.w.w.w.2.>.>.8.>.6.6.6.6.6.6.6.6.6.6.6.6.8.u # % % x +.+.....................................................' ` w.w.w.w.",
"w.w.w.w.w.w.w.w.w.>.>.6.6.6.6.6.6.6.6.6.6.6.6.6.8.u # % - S +.` .................................................. .` w.w.w.w.w.",
"w.w.w.w.w.w.w.w.w.w.>.6.6.6.6.6.6.6.6.6.6.6.6.6.8.u # $ , E +.....................................................' ` w.w.w.w.w.",
"w.w.w.w.w.w.w.w.w.w.w.>.1.8.>.8.>.q.>.q.>.q.>.q.8.p # # 3 ` ` @.................................................' / w.w.w.w.w.w.",
"w.w.w.w.w.w.w.w.w.w.w.w.>.1.q.>.q.>.q.>.q.>.q.>.8.u # $ w ..` ` ..............................................' ` w.w.w.w.w.w.w.",
"w.w.w.w.w.w.w.w.w.w.w.w.w.>.>.1.>.q.>.q.>.q.>.q.6.u # & b +...................................................` ` w.w.w.w.w.w.w.",
"w.w.w.w.w.w.w.w.w.w.w.w.w.w.>.1.q.>.q.>.q.>.q.>.8.u # ; J +.................................................` ` w.w.w.w.w.w.w.w.",
"w.w.w.w.w.w.w.w.w.w.w.w.w.w.w.>.>.8.>.q.6.6.6.6.8.p $ < Q ................................................' ` w.w.w.w.w.w.w.w.w.",
"w.w.w.w.w.w.w.w.w.w.w.w.w.w.w.w.>.>.q.>.6.6.6.6.8.p $ 4 ` ............................................ .' ' w.w.w.w.w.w.w.w.w.w.",
"w.w.w.w.w.w.w.w.w.w.w.w.w.w.w.w.w.>.>.6.6.6.6.6.8.p # a ............................................' ' / w.w.w.w.w.w.w.w.w.w.w.",
"w.w.w.w.w.w.w.w.w.w.w.w.w.w.w.w.w.w.>.>.6.6.6.6.8.p & M ..........................................' ' ' w.w.w.w.w.w.w.w.w.w.w.w.",
"w.w.w.w.w.w.w.w.w.w.w.w.w.w.w.w.w.w.w.>.>.6.6.6.3.u : L ........................................` ` { w.w.w.w.w.w.w.w.w.w.w.w.w.",
"w.w.w.w.w.w.w.w.w.w.w.w.w.w.w.w.w.w.w.w.>.>.6.6.3.q 1 ' ......................................` ` w.w.w.w.w.w.w.w.w.w.w.w.w.w.w.",
"w.w.w.w.w.w.w.w.w.w.w.w.w.w.w.w.w.w.w.w.w.>.>.6.q.p 6 ....................................` ` w.w.w.w.w.w.w.w.w.w.w.w.w.w.w.w.w.",
"w.w.w.w.w.w.w.w.w.w.w.w.w.w.w.w.w.w.w.w.w.w.>.>.q.p z @.............................` ` ` { w.w.w.w.w.w.w.w.w.w.w.w.w.w.w.w.w.w.",
"w.w.w.w.w.w.w.w.w.w.w.w.w.w.w.w.w.w.w.w.w.w.w.>.3.l G ..........................` ` ` w.w.w.w.w.w.w.w.w.w.w.w.w.w.w.w.w.w.w.w.w.",
"w.w.w.w.w.w.w.w.w.w.w.w.w.w.w.w.w.w.w.w.w.w.w.w.3.N R ` ................` ` ` ` { w.w.w.w.w.w.w.w.w.w.w.w.w.w.w.w.w.w.w.w.w.w.w.",
"w.w.w.w.w.w.w.w.w.w.w.w.w.w.w.w.w.w.w.w.w.w.w.w.w.w.^ ` ` ` ` ` ` ` ` { w.w.w.w.w.w.w.w.w.w.w.w.w.w.w.w.w.w.w.w.w.w.w.w.w.w.w.w.",
"w.w.w.w.w.w.w.w.w.w.w.w.w.w.w.w.w.w.w.w.w.w.w.w.w.w.w.w.w.w.w.w.w.w.w.w.w.w.w.w.w.w.w.w.w.w.w.w.w.w.w.w.w.w.w.w.w.w.w.w.w.w.w.w."
};
